<svg id="Capa_1" data-name="Capa 1" xmlns="http://www.w3.org/2000/svg" viewBox="0 0 1800.43 637.9"><defs><style>.cls-1{stroke:#000;stroke-miterlimit:10;stroke-width:30px;}</style></defs><title>rame-logo-black</title><path d="M476.06,752.75h-83L269.39,580.9H191.61V752.75h-71.1v-243h177c51.85,0,95.55-26.67,95.55-91.12,0-65.18-42.23-92.59-94.08-92.59H120.5V255H274.58C404.2,255,464.2,320.15,464.2,414.22c0,77-42.22,140-116.3,160Z" transform="translate(-120.5 -126.7)"/><path d="M989.77,752.75h-77L864.59,646.08h-.26L752.73,400.16,641.13,646.08h-.25L592.73,752.75h-77l237-509.63Z" transform="translate(-120.5 -126.7)"/><path d="M1082.4,422.55l54.4,103.11-36.52,227.09h-72.59Zm436.65-66.14L1306.21,764.6,1093.46,355.79l18.67-112.67,194.08,376.3,194.07-376.3Zm65.68,396.34h-72.6l-36.61-227.69,54.16-104.51Z" transform="translate(-120.5 -126.7)"/><path d="M1920.93,255v71.11H1636.49V255ZM1636.49,539.42v-70.1h248.89v70.1Zm71.1,142.22h213.34v71.11H1636.49V681.39h71.1Z" transform="translate(-120.5 -126.7)"/><path class="cls-1" d="M1836,168.86l-56.18,53.55-56.16-53.63,4.93-14.78,51.23,49.36L1831.07,154Z" transform="translate(-120.5 -126.7)"/></svg>